<?xml version="1.0" encoding="UTF-8" standalone="no"?>
<svg width="47px" height="51px" viewBox="0 0 47 51" version="1.1" xmlns="http://www.w3.org/2000/svg"
  xmlns:xlink="http://www.w3.org/1999/xlink">
  <!-- Generator: Sketch 3.8.3 (29802) - http://www.bohemiancoding.com/sketch -->
  <title>Group</title>
  <desc>Created with Sketch.</desc>
  <defs></defs>
  <g id="Page-1" stroke="none" stroke-width="1" fill="none" fill-rule="evenodd">
    <g id="Group" fill="#000">
      <path
        d="M23.6671,0.4461 C28.5604,0.4461 32.5281,4.4138 32.5281,9.3059 C32.5281,14.1991 28.5604,18.1668 23.6671,18.1668 C18.7751,18.1668 14.8074,14.1991 14.8074,9.3059 C14.8074,4.4138 18.7751,0.4461 23.6671,0.4461 L23.6671,0.4461 Z M23.6677,4.8058 C26.1532,4.8058 28.1684,6.8209 28.1684,9.3065 C28.1684,11.792 26.1532,13.8071 23.6677,13.8071 C21.1822,13.8071 19.1671,11.792 19.1671,9.3065 C19.1671,6.8209 21.1822,4.8058 23.6677,4.8058 L23.6677,4.8058 Z"
        id="_151090152"></path>
      <path
        d="M36.2053,46.9278 L33.7672,50.9909 L33.7672,50.9253 L46.6919,50.9253 L23.6677,19.6648 L0.663,50.9253 L13.5701,50.9253 L13.5701,50.9909 C13.5701,50.9909 13.5701,50.9909 11.132,46.9278 L11.1271,46.9345 C14.2708,42.6653 18.357,37.1164 23.6677,29.9053 L23.6677,29.9053 C28.9785,37.1164 33.0659,42.6647 36.2102,46.9339 L36.2053,46.9278 L36.2053,46.9278 Z"
        id="_150956480"></path>
    </g>
  </g>
</svg>
