<?xml version="1.0" encoding="UTF-8" standalone="no"?>
<svg width="111px" height="172px" viewBox="0 0 111 172" version="1.1" xmlns="http://www.w3.org/2000/svg" xmlns:xlink="http://www.w3.org/1999/xlink">
    <!-- Generator: Sketch 3.8.3 (29802) - http://www.bohemiancoding.com/sketch -->
    <title>Group</title>
    <desc>Created with Sketch.</desc>
    <defs></defs>
    <g id="Page-1" stroke="none" stroke-width="1" fill="none" fill-rule="evenodd">
        <g id="Group" transform="translate(55.400000, 85.750000) scale(1, -1) translate(-55.400000, -85.750000) " fill="#000000">
            <path d="M10.5,170.6 C9,169.5 9,168.6 10.5,158.7 C12.1,148.1 12.1,147.7 10,136.7 C8.7,130.5 6,118.2 3.8,109.5 C1.6,100.7 -0.1,92.4 0.1,91 C0.5,87.8 0.6,87.7 37,71.6 L64.7,59.3 L45.7,49 L26.7,38.7 L16.5,40.9 C6.2,43.2 2.9,43.1 2.9,40.7 C2.9,40 6,30.6 9.7,19.9 C14.6,5.8 16.9,0.3 18.1,0.1 C19.3,-0.1 21.5,2.4 25.6,8.6 C28.8,13.4 32.1,17.9 32.9,18.6 C33.7,19.3 39.4,22.4 45.4,25.5 C51.5,28.6 63.3,35 71.8,39.7 L87.1,48.2 L97.6,45 C110.8,41 111.4,41.2 110.5,51.4 C109.3,64.6 107.6,77.4 106.8,79.7 C105.7,82.6 104.1,82.5 93.3,78.7 L84.2,75.6 L64.3,84.6 C53.4,89.6 39.9,95.4 34.4,97.4 C28.9,99.4 24.3,101.2 24.2,101.3 C24,101.4 25.2,107.6 26.9,115 C28.5,122.4 30.3,132.4 31,137.2 C31.9,144.8 32.8,147.2 36.6,153.6 C39.5,158.5 40.9,162.1 40.7,163.8 C40.4,166.3 39.9,166.5 28.9,168.6 C22.6,169.8 16.2,171 14.8,171.3 C13.3,171.6 11.4,171.3 10.5,170.6 L10.5,170.6 Z" id="Shape"></path>
        </g>
    </g>
</svg>