<?xml version="1.0" encoding="UTF-8" standalone="no"?>
<svg width="192px" height="142px" viewBox="0 0 192 142" version="1.1" xmlns="http://www.w3.org/2000/svg" xmlns:xlink="http://www.w3.org/1999/xlink">
    <!-- Generator: Sketch 3.8.3 (29802) - http://www.bohemiancoding.com/sketch -->
    <title>Group</title>
    <desc>Created with Sketch.</desc>
    <defs></defs>
    <g id="Page-1" stroke="none" stroke-width="1" fill="none" fill-rule="evenodd">
        <g id="Group" transform="translate(95.800000, 70.600000) scale(1, -1) translate(-95.800000, -70.600000) " fill="#000000">
            <path d="M57.6,138.5 C56.8,136.9 53.4,128.3 50,119.2 C38.9,89.9 28.9,66.6 11.1,29.4 C5,16.5 0,5.7 0,5.2 C0,4.8 4.6,3.3 10.3,1.9 C22.1,-1.1 20.9,-1.7 26.6,9.5 L30,16.2 L43.3,16.2 C50.5,16.2 63.9,16.8 73,17.6 C82.1,18.4 105.3,20 124.5,21.3 L159.5,23.5 L170.8,17.8 C181.9,12.2 182,12.2 182.9,14.4 C183.3,15.7 185.7,23.1 188,31 C191.4,42.1 192.1,45.5 191.1,46.1 C190.4,46.6 186.4,47.2 182.1,47.5 L174.3,48.1 L165.5,57.4 C160.6,62.5 146,77.2 133.1,89.9 L109.5,113.2 L85.9,127.2 C73,134.9 61.6,141.2 60.7,141.2 C59.8,141.2 58.4,140 57.6,138.5 L57.6,138.5 Z M84.1,98.9 C93.8,92.2 137.5,50.8 136.5,49.3 C136,48.4 135.5,48.4 94.5,44.3 C56.2,40.4 45,39.7 45,41 C45,42.2 60.6,81.1 66.8,95.5 C70.2,103.3 71.9,106.2 73,105.9 C73.9,105.7 78.8,102.5 84.1,98.9 L84.1,98.9 Z" id="Shape"></path>
        </g>
    </g>
</svg>