<?xml version="1.0" encoding="UTF-8" standalone="no"?>
<svg width="192px" height="95px" viewBox="0 0 192 95" version="1.1" xmlns="http://www.w3.org/2000/svg" xmlns:xlink="http://www.w3.org/1999/xlink">
    <!-- Generator: Sketch 3.8.3 (29802) - http://www.bohemiancoding.com/sketch -->
    <title>Group</title>
    <desc>Created with Sketch.</desc>
    <defs></defs>
    <g id="Page-1" stroke="none" stroke-width="1" fill="none" fill-rule="evenodd">
        <g id="Group" transform="translate(95.850000, 47.150000) scale(1, -1) translate(-95.850000, -47.150000) " fill="#000000">
            <path d="M109.7,85.2 L86.2,76.2 L63.7,73.9 L41.2,71.7 L21.7,61.5 C11,55.9 1.6,50.7 0.8,49.9 C-0.5,48.7 -0.2,47.8 2.6,43.2 C4.4,40.3 9.5,33.1 14,27.2 L22.1,16.5 L28.6,15 C32.2,14.1 42.9,12.1 52.2,10.4 C69,7.5 75.1,6.4 99.9,2.2 L112.7,0 L136.7,4 L160.8,7.9 L167.6,18.9 C186.2,48.7 191.7,57.9 191.7,58.9 C191.7,59.8 177,82.1 169.8,92.1 C168.3,94.3 167.6,94.3 150.7,94.3 L133.2,94.3 L109.7,85.2 L109.7,85.2 Z M169.2,70.7 L177.5,58.9 L175.4,55.4 C166.5,40.7 161.2,32.5 161,33.2 C160.6,35 160,83.4 160.4,83 C160.7,82.8 164.6,77.2 169.2,70.7 L169.2,70.7 Z M149.8,69.7 C150,64.8 150,52.6 149.7,42.5 L149.2,24.1 L131.7,20.2 L114.2,16.4 L81.2,21.8 C63.1,24.8 46,27.5 43.2,27.9 C33.6,29 33.1,29.3 28.3,35.4 C25.1,39.5 23.7,42.2 23.7,44.4 C23.7,47.3 24.2,47.7 34.2,52.6 L44.7,57.7 L60.4,58.5 C69.1,58.9 80.8,59.3 86.4,59.4 C96.3,59.4 97,59.5 106.8,63.9 C122.4,70.8 143.2,78.1 147.8,78.3 C149.2,78.4 149.5,76.9 149.8,69.7 L149.8,69.7 Z" id="Shape"></path>
        </g>
    </g>
</svg>