<?xml version="1.0" encoding="UTF-8" standalone="no"?>
<svg width="124px" height="172px" viewBox="0 0 124 172" version="1.1" xmlns="http://www.w3.org/2000/svg" xmlns:xlink="http://www.w3.org/1999/xlink">
    <!-- Generator: Sketch 3.8.3 (29802) - http://www.bohemiancoding.com/sketch -->
    <title>Group</title>
    <desc>Created with Sketch.</desc>
    <defs></defs>
    <g id="Page-1" stroke="none" stroke-width="1" fill="none" fill-rule="evenodd">
        <g id="Group" transform="translate(62.000000, 85.950000) scale(1, -1) translate(-62.000000, -85.950000) " fill="#000000">
            <path d="M0,171.3 C0,169.6 10.5,135.7 16.8,117.1 C28.5,82.4 55.3,6.5 56.9,3.3 L58.6,0 L67.3,5.6 C72.1,8.6 79.9,13.6 84.8,16.7 C92.8,21.8 93.8,22.2 98,21.7 C100.5,21.4 107.3,20.9 113.3,20.5 C122.3,19.9 124,20.1 124,21.3 C124,26.1 118.3,63.1 117.4,64 C117.2,64.2 106.6,58.4 93.9,51.2 C81.2,43.9 70.7,38.1 70.5,38.3 C70.4,38.5 64,55.2 56.5,75.6 C48.9,96 40.3,119.1 37.3,127 C34.3,134.9 32.1,141.5 32.3,141.7 C32.5,141.9 39.1,140.7 47.1,139 C55,137.4 65.9,135.1 71.4,134 C81.3,132.1 81.3,132.1 91.7,123.8 C107.8,111.1 106,111.4 106,121.8 C106,130.3 104.7,151.5 103.4,162.8 C102.8,169 103.8,169.2 89.3,159.9 L80,153.9 L71.8,155.6 C67.2,156.5 54.3,159.5 43,162.2 C31.7,165 18.2,168.1 13,169.2 C7.8,170.3 2.7,171.4 1.8,171.7 C0.8,172 0,171.8 0,171.3 L0,171.3 Z" id="Shape"></path>
        </g>
    </g>
</svg>