<?xml version="1.0" encoding="UTF-8" standalone="no"?>
<svg width="152px" height="172px" viewBox="0 0 152 172" version="1.1" xmlns="http://www.w3.org/2000/svg" xmlns:xlink="http://www.w3.org/1999/xlink">
    <!-- Generator: Sketch 3.8.3 (29802) - http://www.bohemiancoding.com/sketch -->
    <title>Group</title>
    <desc>Created with Sketch.</desc>
    <defs></defs>
    <g id="Page-1" stroke="none" stroke-width="1" fill="none" fill-rule="evenodd">
        <g id="Group" transform="translate(75.850000, 86.000000) scale(1, -1) translate(-75.850000, -86.000000) " fill="#000000">
            <path d="M81.7,171.2 C81.7,170.8 83.3,166.4 85.3,161.4 L89,152.5 L88.3,129.2 L87.6,105.9 L100.7,92.1 L113.8,78.2 L117.4,79.2 C119.3,79.7 121.1,79.9 121.3,79.7 C121.9,79.1 116.9,59.8 115.9,58.8 C115.5,58.5 111,56.5 105.9,54.5 C99.6,51.9 96,49.9 94.4,47.8 L92.1,44.9 L88.3,53.4 C84.4,62.1 82.9,63.9 67.2,78 C63.3,81.4 61.2,84.6 58.2,91.3 C54.7,99.1 54,100 51.6,100 C49.2,100 48.2,98.7 42.3,88.4 C38.7,82 35.7,76.4 35.7,76.1 C35.7,75.4 40.2,71.8 57.6,58.7 C65.9,52.4 66,52.3 69.3,43.5 C71.1,38.6 72.4,34.4 72.1,34.1 C71.2,33.2 58.2,32.1 38.1,31.4 L17.9,30.7 L9.7,35.4 C5.2,38 1.4,40 1.3,39.8 C0.8,39.3 -0.3,0 0.1,0 C0.3,0 3.8,2.7 7.7,6 L14.9,12 L40,12 C53.9,12.1 72,12.1 80.2,12 L95.2,11.9 L98.2,17.7 C102.2,25.5 107.3,30.9 112.7,33.3 C115.2,34.4 120.6,37.7 124.8,40.6 L132.5,46 L136.5,57.2 C142.4,74 151.7,102.9 151.7,104.6 C151.7,107.3 148.6,107.3 134,104.5 L119.5,101.7 L113.4,107.8 L107.4,113.9 L108.3,132.2 L109.2,150.5 L114,158.3 C116.6,162.6 118.7,166.2 118.7,166.4 C118.7,167.1 113.7,168 98.1,170 C89.4,171.1 82.1,172 82,172 C81.8,172 81.7,171.6 81.7,171.2 L81.7,171.2 Z" id="Shape"></path>
        </g>
    </g>
</svg>