<?xml version="1.0" encoding="UTF-8" standalone="no"?>
<svg width="214px" height="111px" viewBox="0 0 214 111" version="1.1" xmlns="http://www.w3.org/2000/svg" xmlns:xlink="http://www.w3.org/1999/xlink">
    <!-- Generator: Sketch 3.8.3 (29802) - http://www.bohemiancoding.com/sketch -->
    <title>Group</title>
    <desc>Created with Sketch.</desc>
    <defs></defs>
    <g id="Page-1" stroke="none" stroke-width="1" fill="none" fill-rule="evenodd">
        <g id="Group" transform="translate(106.650000, 55.500000) scale(1, -1) translate(-106.650000, -55.500000) translate(0.000000, 0.000000)" fill="#000000">
            <path d="M166.6,105.9 C164.2,103.1 158.7,98.8 153.6,95.8 C148.8,92.9 141.7,88.4 137.7,85.7 C133.7,83.1 130.2,80.9 129.9,80.9 C129.6,80.9 126.6,79.1 123.4,76.9 C120.2,74.7 117.2,72.9 116.9,72.9 C116.5,72.9 110.2,75.1 102.9,77.9 C95.5,80.6 84.8,84.5 78.9,86.5 L68.3,90.2 L63.8,86.9 L59.3,83.7 L47.6,85.5 L35.9,87.2 L23.7,74.3 L11.4,61.5 L17.6,55.2 C26.8,45.9 28.3,46.3 36.4,60.9 C39.3,66.1 41.8,70.5 41.9,70.7 C42.1,70.9 50.2,69.5 60,67.6 C69.9,65.7 85.6,62.6 95.1,60.8 L112.3,57.6 L115.8,46.5 C117.8,40.4 119.4,35.1 119.4,34.8 C119.4,34.4 116.1,34.9 112.2,35.9 C108.2,37 98.4,38.5 90.4,39.3 C62.5,42.3 45.8,44 37.3,44.6 L28.8,45.2 L25.8,41.3 C24.1,39.1 20.4,33.9 17.5,29.6 C13.1,23.1 11.5,21.5 6.5,18.9 C3.3,17.3 0.4,15.3 0.1,14.5 C-0.7,12.6 17,-0.3 19.8,0.1 C21.1,0.3 22.3,2.1 23.5,5.8 C24.6,8.8 27.9,14.6 31,18.8 C34.2,23 36.8,26.5 36.9,26.6 C37,26.8 40.6,26.4 45,25.9 C49.3,25.4 62.6,24 74.4,22.9 C109.8,19.6 114.1,18.5 128.8,8.5 C132.7,5.9 136.3,4 136.8,4.2 C137.4,4.5 142.3,7.7 147.7,11.3 C153.7,15.5 157.4,18.7 157.4,19.7 C157.4,21 155,22.5 149.2,25 L141,28.4 L136.1,43.4 C133.5,51.6 131.6,58.9 131.8,59.6 C132.1,60.3 134.4,62.1 137,63.7 C139.6,65.2 147.9,70.3 155.6,75.1 L169.6,83.9 L175.4,82.4 C183.9,80.2 184.5,80.3 183.7,84.2 C181.5,95.8 174.5,111.1 171.5,110.9 C171.2,110.8 169,108.6 166.6,105.9 L166.6,105.9 Z" id="Shape"></path>
            <path d="M189.8,45.5 C189.4,44.4 192.3,29.2 194,23.7 C194.3,22.7 195.3,21.9 196.2,21.9 C198.5,21.9 213.6,40.4 213.2,42.7 C212.9,44.4 211,44.8 196.1,46.2 C191.9,46.6 190.1,46.4 189.8,45.5 L189.8,45.5 Z" id="Shape"></path>
        </g>
    </g>
</svg>