<?xml version="1.0" encoding="UTF-8" standalone="no"?>
<svg width="160px" height="172px" viewBox="0 0 160 172" version="1.1" xmlns="http://www.w3.org/2000/svg" xmlns:xlink="http://www.w3.org/1999/xlink">
    <!-- Generator: Sketch 3.8.3 (29802) - http://www.bohemiancoding.com/sketch -->
    <title>Group</title>
    <desc>Created with Sketch.</desc>
    <defs></defs>
    <g id="Page-1" stroke="none" stroke-width="1" fill="none" fill-rule="evenodd">
        <g id="Group" transform="translate(79.900000, 85.900000) scale(1, -1) translate(-79.900000, -85.900000) " fill="#000000">
            <path d="M119.8,169.5 C119.9,168.3 120.7,163.3 121.7,158.5 L123.6,149.7 L111.2,116 C104.4,97.5 96.3,75.4 93.2,67 C90.1,58.7 87.2,51.6 86.8,51.3 C86.3,51 66.8,54 43.3,57.9 C19.9,61.8 0.4,64.8 0.1,64.5 C-0.3,64 28,1.2 29.1,0.1 C29.3,-1.386391e-14 44.9,6.9 63.8,15.6 C97.8,31.2 98.3,31.4 102.6,30.4 C108,29.2 108.4,29.6 109.3,39.7 C109.9,45.9 112.9,55.4 126,92.3 L141.9,137.3 L151,146 C156,150.9 159.9,155 159.7,155.3 C159.2,155.7 136.1,165.3 124.6,169.9 L119.8,171.8 L119.8,169.5 L119.8,169.5 Z M51.8,42.3 C64.7,40.3 76,38.4 76.8,38.1 C78.4,37.6 69.5,32.8 49.2,23.3 L38.1,18 L31,32.4 C24.5,45.4 24,46.8 26,46.3 C27.3,46.1 38.9,44.2 51.8,42.3 L51.8,42.3 Z" id="Shape"></path>
        </g>
    </g>
</svg>