<?xml version="1.0" encoding="UTF-8" standalone="no"?>
<svg width="190px" height="164px" viewBox="0 0 190 164" version="1.1" xmlns="http://www.w3.org/2000/svg" xmlns:xlink="http://www.w3.org/1999/xlink">
    <!-- Generator: Sketch 3.8.3 (29802) - http://www.bohemiancoding.com/sketch -->
    <title>Group</title>
    <desc>Created with Sketch.</desc>
    <defs></defs>
    <g id="Page-1" stroke="none" stroke-width="1" fill="none" fill-rule="evenodd">
        <g id="Group" transform="translate(94.950000, 81.700000) scale(1, -1) translate(-94.950000, -81.700000) " fill="#000000">
            <path d="M180.4,161.8 C178.7,160.8 172.7,156.8 166.9,152.9 C151.1,142.2 141.6,137.1 129.5,132.9 L118.5,129 L93.5,129.1 C75.7,129.1 65.2,129.6 57.1,130.8 C50.9,131.7 45.6,132.6 45.4,132.8 C45.2,132.9 44.8,136.8 44.4,141.3 L43.7,149.5 L40.6,149.5 C33.8,149.5 4.6,146.5 3.9,145.8 C3.2,145 0,127.3 0,124.3 C0,123.4 6.1,117.7 13.6,111.5 L27.2,100.3 L33.1,106.1 L38.9,111.9 L56.2,109.1 C71.5,106.6 76.2,106.2 97,106.2 L120.5,106.1 L139,114.2 C149.2,118.7 157.6,122.2 157.7,122.1 C157.9,121.9 155.3,109.3 152,93.9 C148.6,78.6 145.7,64.8 145.3,63.3 L144.8,60.6 L141.3,62.5 C136,65.3 135,64.4 135,56.4 C135,50 138.4,9.7 139.6,2.7 C140,-0.1 140.3,-0.4 142,0.5 C145,2.1 169,25.6 169,26.9 C169,27.5 166.8,30.8 164.1,34.3 L159.2,40.6 L161.2,49.8 C164.8,66.8 177,113.8 183.6,136.3 C187.2,148.5 190,159.5 189.8,160.8 C189.4,163.7 184.6,164.2 180.4,161.8 L180.4,161.8 Z M28,127 L26.9,121.5 L20.9,126.1 C17.7,128.7 15.2,131.1 15.6,131.4 C16.5,132.4 28.5,134.1 28.8,133.3 C29,132.9 28.6,130.1 28,127 L28,127 Z" id="Shape"></path>
        </g>
    </g>
</svg>