<?xml version="1.0" encoding="UTF-8" standalone="no"?>
<svg width="208px" height="72px" viewBox="0 0 208 72" version="1.1" xmlns="http://www.w3.org/2000/svg" xmlns:xlink="http://www.w3.org/1999/xlink">
    <!-- Generator: Sketch 3.8.3 (29802) - http://www.bohemiancoding.com/sketch -->
    <title>Group</title>
    <desc>Created with Sketch.</desc>
    <defs></defs>
    <g id="Page-1" stroke="none" stroke-width="1" fill="none" fill-rule="evenodd">
        <g id="Group" transform="translate(104.000000, 35.950000) scale(1, -1) translate(-104.000000, -35.950000) " fill="#000000">
            <path d="M103.6,68.9 L99.6,66 L77.5,65.9 L55.3,65.9 L47.2,60.7 C23.7,45.6 1.7,30.8 0.9,29.7 C-0.7,27.1 -3.53883589e-16,24 2.3,23.5 C7.3,22.5 60.8,16.9 81.4,15.3 L90.1,14.6 L95.3,8.3 C98.1,4.8 100.5,1.9 100.5,1.9 C100.6,1.9 102.1,1.5 103.9,0.9 L107.3,0 L114.3,14.5 C118.2,22.4 121.2,29.1 121,29.3 C120.8,29.5 108.5,31.4 93.6,33.6 L66.6,37.4 L66.9,39.9 C67,41.2 67.3,42.4 67.5,42.6 C67.6,42.8 74,43 81.7,43.1 L95.7,43.4 L99.9,40.1 C104.7,36.3 104.8,36.3 124.6,40 C130.1,41.1 139.6,42.4 145.7,43 L156.8,44.1 L163,41 L169.1,37.9 L173.9,40.2 C178.5,42.6 179,42.6 192,41.7 C199.4,41.2 206,41 206.8,41.4 C208.1,41.8 208.2,44.1 207.6,55.7 C207.1,65.1 206.5,69.8 205.5,70.8 C204.3,72.1 202.6,71.8 192.8,68.6 L181.4,65 L173.7,67.5 L165.9,69.9 L159.8,66.7 L153.6,63.4 L136.6,64.6 C120.5,65.6 119.3,65.9 114.1,68.8 C111.1,70.5 108.4,71.9 108.1,71.8 C107.8,71.8 105.8,70.5 103.6,68.9 L103.6,68.9 Z" id="Shape"></path>
        </g>
    </g>
</svg>