<?xml version="1.0" encoding="UTF-8" standalone="no"?>
<svg width="168px" height="170px" viewBox="0 0 168 170" version="1.1" xmlns="http://www.w3.org/2000/svg" xmlns:xlink="http://www.w3.org/1999/xlink">
    <!-- Generator: Sketch 3.8.3 (29802) - http://www.bohemiancoding.com/sketch -->
    <title>Group</title>
    <desc>Created with Sketch.</desc>
    <defs></defs>
    <g id="Page-1" stroke="none" stroke-width="1" fill="none" fill-rule="evenodd">
        <g id="Group" transform="translate(83.900000, 84.750000) scale(1, -1) translate(-83.900000, -84.750000) " fill="#000000">
            <path d="M2.8,168.3 C1.2,167.8 -1.42108547e-14,166.8 -1.42108547e-14,166.1 C-1.42108547e-14,162.9 4.7,150.9 34.5,78.2 C61.8,11.7 66.7,0.5 68.6,0.1 C70.4,-0.4 80,6.2 117.2,33.6 C142.7,52.4 164.3,68.5 165.2,69.4 C166.2,70.3 167.2,72.4 167.6,74 C168.1,77 168,77.1 153.5,85.4 C145.4,90 130.7,98.2 120.7,103.7 C110.7,109.2 94.6,118.3 85,124 C75.4,129.6 55.8,140.7 41.5,148.5 C27.2,156.4 13.4,164.3 10.9,166.2 C8.3,168 6.1,169.5 5.9,169.4 C5.7,169.4 4.3,168.9 2.8,168.3 L2.8,168.3 Z M84.3,101.6 C110.5,86.5 132,73.8 132,73.5 C132,72.8 77.9,30.3 77.5,30.7 C76.3,32 34.6,130.3 35.5,129.7 C36.1,129.3 58.1,116.7 84.3,101.6 L84.3,101.6 Z" id="Shape"></path>
        </g>
    </g>
</svg>