<?xml version="1.0" encoding="UTF-8" standalone="no"?>
<svg width="160px" height="132px" viewBox="0 0 160 132" version="1.1" xmlns="http://www.w3.org/2000/svg" xmlns:xlink="http://www.w3.org/1999/xlink">
    <!-- Generator: Sketch 3.8.3 (29802) - http://www.bohemiancoding.com/sketch -->
    <title>Group</title>
    <desc>Created with Sketch.</desc>
    <defs></defs>
    <g id="Page-1" stroke="none" stroke-width="1" fill="none" fill-rule="evenodd">
        <g id="Group" transform="translate(79.700000, 66.000000) scale(1, -1) translate(-79.700000, -66.000000) " fill="#000000">
            <path d="M0.4,115.4 C1.42108547e-14,106.2 -0.1,98.6 0.1,98.3 C0.4,98.1 8.4,98.8 18.1,99.9 C27.7,101.1 36.4,102 37.5,102 C38.5,102 45.9,97 53.8,90.9 C61.8,84.8 69,79.3 69.9,78.6 C71.5,77.6 71.3,75.8 67.8,57.5 C65.7,46.5 62.3,29.9 60.3,20.6 L56.5,3.7 L58.8,1.8 C60,0.8 61.6,0 62.3,0 C63.1,0 73,2.2 84.5,4.9 C113.4,11.8 148.5,19.7 153.5,20.5 C157.1,21.1 157.8,21.6 158.8,24.4 C159.7,27.1 159.5,28.5 157.9,32.4 C151.2,47.8 146.8,68.5 146.8,84.1 C146.8,89.8 146.4,93.1 145.6,93.8 C144.7,94.5 141.8,94.4 136.3,93.4 C125.4,91.5 102.3,88 98.4,87.8 C95.9,87.6 90.6,90.8 69.3,105.4 L43.3,123.2 L23,127.6 C11.8,130 2.3,132 1.9,132 C1.4,132 0.8,124.5 0.4,115.4 L0.4,115.4 Z M130.3,68.3 C130.7,65.1 132,57 133.4,50.4 C134.7,43.7 135.8,37.9 135.8,37.3 C135.8,36.8 131,35.4 125.1,34.2 C119.1,32.9 106.6,30.2 97.3,28.2 L80.2,24.4 L83.5,46.9 C85.3,59.4 86.8,69.6 86.8,69.8 C86.8,69.9 89.2,70 92.1,70.1 C94.9,70.1 103.2,71 110.3,72 C130.9,74.8 129.5,75 130.3,68.3 L130.3,68.3 Z" id="Shape"></path>
        </g>
    </g>
</svg>