<?xml version="1.0" encoding="UTF-8" standalone="no"?>
<svg width="122px" height="172px" viewBox="0 0 122 172" version="1.1" xmlns="http://www.w3.org/2000/svg" xmlns:xlink="http://www.w3.org/1999/xlink">
    <!-- Generator: Sketch 3.8.3 (29802) - http://www.bohemiancoding.com/sketch -->
    <title>Group</title>
    <desc>Created with Sketch.</desc>
    <defs></defs>
    <g id="Page-1" stroke="none" stroke-width="1" fill="none" fill-rule="evenodd">
        <g id="Group" transform="translate(61.050000, 85.850000) scale(1, -1) translate(-61.050000, -85.850000) " fill="#000000">
            <path d="M57.6,161.7 C52,151.6 51.5,150.2 52.6,147.3 C53.1,145.9 55.4,145.7 67.6,145.7 C81.7,145.7 82.1,145.7 83.1,148 C84,150.1 83.3,151.6 76.5,161 C69.8,170.2 68.4,171.7 66,171.7 C63.5,171.7 62.6,170.6 57.6,161.7 L57.6,161.7 Z" id="Shape"></path>
            <path d="M0.4,131.3 C-0.3,128.5 -0.3,128.6 6,119.7 L10.7,113.2 L12.3,98.2 C13.3,90 14.3,79.3 14.7,74.5 C15.3,65 15.5,65.7 6.8,42.9 C3,33.1 2.9,32.5 4.4,30.2 C7.2,25.9 32.1,0.8 34.1,0.2 C35.5,-0.3 37.6,0.9 41.8,4.5 L47.5,9.4 L69,10.1 C86.1,10.6 90.7,11 91.9,12.2 C92.8,13 97.1,26.2 101.7,41.4 L109.9,69 L115.9,75.1 C120.3,79.5 122,82 122,83.9 C122,86.4 121.4,86.8 108.9,90.7 C101.7,93 95.2,94.6 94.5,94.3 C93.6,94 93.1,90.4 92.8,82 C92.4,70.5 92.2,69.6 85.7,50 L78.9,29.9 L64.7,29.5 C56.9,29.3 49.6,29.4 48.4,29.8 C46.8,30.4 45.1,33.8 41.2,44.4 C36.3,57.5 35.9,59.5 32.5,84.8 L28.8,111.4 L33.4,120.6 C40.2,133.9 40.4,133.7 18.5,133.7 L1,133.7 L0.4,131.3 L0.4,131.3 Z" id="Shape"></path>
        </g>
    </g>
</svg>