<?xml version="1.0" encoding="UTF-8" standalone="no"?>
<svg width="166px" height="172px" viewBox="0 0 166 172" version="1.1" xmlns="http://www.w3.org/2000/svg" xmlns:xlink="http://www.w3.org/1999/xlink">
    <!-- Generator: Sketch 3.8.3 (29802) - http://www.bohemiancoding.com/sketch -->
    <title>Group</title>
    <desc>Created with Sketch.</desc>
    <defs></defs>
    <g id="Page-1" stroke="none" stroke-width="1" fill="none" fill-rule="evenodd">
        <g id="Group" transform="translate(83.000000, 85.650000) scale(1, -1) translate(-83.000000, -85.650000) " fill="#000000">
            <path d="M141.5,170.9 C141.2,170.1 140,166.5 138.8,162.9 C136.6,156.5 136.1,156 126,147.8 C120.2,143.1 107.6,133.4 97.9,126.3 L80.4,113.2 L70.9,115.1 C56.6,118 57.7,117.2 58.2,124.5 C58.8,131.7 62.3,138.9 67.6,144.1 L70.9,147.3 L76.1,145.1 C84.6,141.6 88.4,141.4 91.7,144.1 C96.1,147.8 115,168.1 115,169.1 C115,169.6 104.1,170 90.9,170 L66.7,170 L62.3,166.4 C59.8,164.4 50.1,156.9 40.7,149.7 C31.2,142.6 23.6,136.3 23.8,135.6 C24,135 27,128.8 30.6,121.7 C34.1,114.7 37,108.2 37,107.3 C37,106.4 35.4,98.2 33.4,89.1 C30.4,75.5 28.1,68.5 20.7,50 C15.8,37.6 11.2,27.3 10.6,27.1 C8.1,26.2 0,17.1 0,15.3 C0,13.8 1.4,12.7 5.1,11 C12.1,8.1 32.3,0 32.8,0 C33.1,0 33,4.4 32.6,9.8 C32,18.5 32.2,20.2 34.3,26.5 C36.5,32.7 45,55.2 45.4,55.7 C45.5,55.8 48.4,54.8 51.9,53.4 L58.1,50.9 L65,52.6 C71.9,54.4 72,54.4 74.8,52.3 C76.3,51.2 80.5,48.8 84.1,47 C93.7,42.2 110,32.9 114.3,29.9 C116.4,28.4 119.9,24.8 122.2,22 C125.5,17.8 126.6,17 127.4,18.2 C136.1,29.5 144.1,42.3 143,43.3 C142.7,43.6 138.8,44.3 134.3,44.8 C126.6,45.7 125,46.4 107.3,56 C97,61.6 88.2,66.4 87.9,66.8 C87.3,67.5 93.3,99.7 94.1,100.4 C94.3,100.6 97.9,103.1 102,106 C106.1,108.9 113.5,114.5 118.5,118.3 C123.4,122.2 132.5,129.1 138.8,133.6 L150.1,141.8 L158.1,142.5 C162.4,142.9 166,143.6 166,144 C166,145.1 162,150 155,157.5 C152,160.8 147.8,165.5 145.8,167.9 C143.2,170.9 141.9,171.9 141.5,170.9 L141.5,170.9 Z M54.2,144.3 C49.6,137.7 48.5,134.5 48,125.7 L47.5,116.9 L43.3,125.4 L39.1,133.9 L47.3,140.4 C51.8,144 55.6,146.9 55.8,146.9 C56,147 55.3,145.8 54.2,144.3 L54.2,144.3 Z M69.6,101.7 C69.7,101.6 68.4,93.9 66.6,84.5 C63.5,67.8 63.4,67.5 61,67.7 C54.8,68.4 53.8,68.9 54.4,71.8 C54.7,73.3 56.1,81 57.6,88.9 L60.3,103.2 L64.8,102.6 C67.3,102.3 69.4,101.9 69.6,101.7 L69.6,101.7 Z" id="Shape"></path>
        </g>
    </g>
</svg>