<?xml version="1.0" encoding="UTF-8" standalone="no"?>
<svg width="180px" height="125px" viewBox="0 0 180 125" version="1.1" xmlns="http://www.w3.org/2000/svg" xmlns:xlink="http://www.w3.org/1999/xlink">
    <!-- Generator: Sketch 3.8.3 (29802) - http://www.bohemiancoding.com/sketch -->
    <title>Group</title>
    <desc>Created with Sketch.</desc>
    <defs></defs>
    <g id="Page-1" stroke="none" stroke-width="1" fill="none" fill-rule="evenodd">
        <g id="Group" transform="translate(90.050000, 62.450000) scale(1, -1) translate(-90.050000, -62.450000) " fill="#000000">
            <path d="M150.5,123.7 C143.9,123.2 138.3,122.6 138.2,122.4 C138,122.3 138.8,116.2 140,109 C141.2,101.8 142,95.7 141.8,95.6 C141.7,95.4 112.7,94 77.5,92.5 C32.9,90.6 13.1,89.4 12.2,88.6 C11.5,87.9 10.3,83.4 9.4,78.4 C8.2,71.5 7,68 3.9,62.9 C1.8,59.3 0,55.8 0,55.1 C0,54.4 2.6,48.1 5.9,41 C9.1,33.9 11.4,27.8 11,27.3 C10.6,26.9 9.1,24.4 7.6,21.9 L5,17.3 L11.5,8.7 C17,1.4 18.5,-1.42108547e-14 20.8,-1.42108547e-14 C23.3,-1.42108547e-14 24,0.9 27.5,7.9 L31.3,15.9 L35.9,16.4 C46.1,17.6 135.4,23 145.4,23 C147.5,23 148.2,22 150.6,16 C153,9.9 153.6,9 155.8,9 C158.2,9 175.8,21.2 178.8,24.8 C181.3,28 180.1,30.5 173.6,35.9 L167.3,41.2 L166.8,72.3 L166.3,103.5 L171.6,111.4 L176.9,119.3 L174.7,122.1 C172.3,125.4 171.8,125.4 150.5,123.7 L150.5,123.7 Z M145.8,59.8 L145.5,46.5 L88.6,41.7 C57.3,39.1 31.5,37.1 31.3,37.3 C31.1,37.6 30.7,44.5 30.3,52.9 L29.7,68 L36.6,68.1 C40.4,68.1 62.6,69.2 86,70.4 C109.4,71.7 132.5,72.8 137.3,72.9 L146.1,73 L145.8,59.8 L145.8,59.8 Z" id="Shape"></path>
        </g>
    </g>
</svg>