<?xml version="1.0" encoding="UTF-8" standalone="no"?>
<svg width="209px" height="168px" viewBox="0 0 209 168" version="1.1" xmlns="http://www.w3.org/2000/svg" xmlns:xlink="http://www.w3.org/1999/xlink">
    <!-- Generator: Sketch 3.8.3 (29802) - http://www.bohemiancoding.com/sketch -->
    <title>Group</title>
    <desc>Created with Sketch.</desc>
    <defs></defs>
    <g id="Page-1" stroke="none" stroke-width="1" fill="none" fill-rule="evenodd">
        <g id="Group" transform="translate(104.100000, 83.750000) scale(1, -1) translate(-104.100000, -83.750000) " fill="#000000">
            <path d="M16.2,156.3 C0.2,145.3 0,145.1 0,141.5 L0,137.7 L10.1,133.9 L20.1,130.1 L26.7,120.6 C46.7,91.6 72.3,66.8 100.6,49 C118.2,37.9 143.2,26.3 163,19.9 C170.7,17.4 172.4,16.4 181.4,8.4 C190.4,0.5 191.7,-0.3 194.4,0.2 C196.1,0.5 197.7,0.9 197.9,1.1 C198.1,1.3 200.5,10.8 203.2,22.1 L208.2,42.8 L205.6,45.3 L203.1,47.8 L189.9,43.1 L176.7,38.3 L165.1,42.6 C119.6,59.4 77.8,90.9 44,133.8 L37.8,141.7 L38.5,153 L39.2,164.3 L36.2,165.9 C34.5,166.8 32.9,167.5 32.8,167.5 C32.6,167.5 25.1,162.5 16.2,156.3 L16.2,156.3 Z" id="Shape"></path>
        </g>
    </g>
</svg>