<?xml version="1.0" encoding="UTF-8" standalone="no"?>
<svg width="172px" height="171px" viewBox="0 0 172 171" version="1.1" xmlns="http://www.w3.org/2000/svg" xmlns:xlink="http://www.w3.org/1999/xlink">
    <!-- Generator: Sketch 3.8.3 (29802) - http://www.bohemiancoding.com/sketch -->
    <title>Group</title>
    <desc>Created with Sketch.</desc>
    <defs></defs>
    <g id="Page-1" stroke="none" stroke-width="1" fill="none" fill-rule="evenodd">
        <g id="Group" transform="translate(86.000000, 85.050000) scale(1, -1) translate(-86.000000, -85.050000) " fill="#000000">
            <path d="M68,160.8 C59.5,155.8 43.1,146.3 31.5,139.7 C11.6,128.3 0,121.2 0,120.3 C0,119.5 8.5,110.8 11.1,108.9 L13.9,106.9 L23.2,111.6 C61.3,130.7 110,159.1 110,162.1 C110,163.2 88,170.1 84.8,170 C84.1,169.9 76.5,165.8 68,160.8 L68,160.8 Z" id="Shape"></path>
            <path d="M47.8,119.8 C40.2,115.8 34,112.2 34,111.8 C34,111.3 36.1,109.5 38.7,107.7 C51.4,98.9 60,91.8 70.2,81.6 C82.2,69.6 111.5,38.2 116.8,31.7 L120,27.7 L120,13.9 C120,6.2 120.3,0 120.7,0 C121.7,0 139,13.3 149.6,22.2 C159.5,30.5 172,42.7 172,44.1 C172,45.8 156,49.9 146.8,50.6 C137.5,51.3 137.5,51.3 129.8,56.7 C125.6,59.8 117.7,66.8 112.3,72.4 C93,92.1 80.3,105.6 71,116.3 C65.9,122.2 61.6,127 61.6,127 C61.5,127 55.3,123.7 47.8,119.8 L47.8,119.8 Z M150.3,36.2 C148.5,34.7 143.7,30.7 139.6,27.2 L132,20.9 L132,24.7 C132,26.8 132.3,30.9 132.6,33.8 L133.3,39 L143.4,39 L153.5,38.9 L150.3,36.2 L150.3,36.2 Z" id="Shape"></path>
        </g>
    </g>
</svg>