<?xml version="1.0" encoding="UTF-8" standalone="no"?>
<svg width="184px" height="177px" viewBox="0 0 184 177" version="1.1" xmlns="http://www.w3.org/2000/svg" xmlns:xlink="http://www.w3.org/1999/xlink">
    <!-- Generator: Sketch 3.8.3 (29802) - http://www.bohemiancoding.com/sketch -->
    <title>Group</title>
    <desc>Created with Sketch.</desc>
    <defs></defs>
    <g id="Page-1" stroke="none" stroke-width="1" fill="none" fill-rule="evenodd">
        <g id="Group" transform="translate(91.600000, 88.400000) scale(1, -1) translate(-91.600000, -88.400000) " fill="#000000">
            <path d="M145.9,175.2 C145.9,174.3 146.4,169.6 147.1,164.8 L148.2,156.1 L141.9,143.7 C137.2,134.4 120.7,103.1 119.4,101 C119.3,100.9 108.3,101.9 94.9,103.3 C81.5,104.7 69.9,105.6 69.2,105.4 C68.4,105.1 67.9,103.2 67.9,100.6 C67.9,94 67,92.1 63.6,90.7 C56.3,87.9 25.3,73.5 24.3,72.4 C23.2,71.4 21.6,64.5 15.3,34.5 L12.6,21.7 L5.7,13.8 C0.2,7.4 -0.8,5.8 0.7,5.4 C6.6,3.7 36.7,-0.7 37.5,0.1 C37.8,0.4 36.8,4.6 35.3,9.4 C32.7,17.9 32.7,18.7 33.8,25.8 C35.4,35.5 40.7,57 41.6,57.9 C42.9,59.1 65.3,68.6 66,68.2 C66.4,68 67.2,64.9 67.9,61.3 C68.6,57.7 69.3,54.8 69.5,54.8 C70.5,54.8 91.8,64.8 111.5,74.6 L133.6,85.6 L142.9,103.5 C147.9,113.3 155.3,127.2 159.1,134.3 C166.1,147.3 166.3,147.4 174.1,152.8 C178.5,155.8 182.4,158.8 183,159.4 C183.6,160.2 181.8,161.5 176.7,163.8 C157.8,172.4 147.6,176.8 146.8,176.8 C146.3,176.8 145.9,176.1 145.9,175.2 L145.9,175.2 Z M96.4,89.8 C103,89.1 108.6,88.5 108.8,88.3 C109.1,87.9 93.9,80.1 85.4,76.3 L79.9,73.9 L79.9,82.9 C79.9,91.6 79.9,91.8 82.2,91.4 C83.4,91.1 89.8,90.4 96.4,89.8 L96.4,89.8 Z" id="Shape"></path>
        </g>
    </g>
</svg>