<?xml version="1.0" encoding="UTF-8" standalone="no"?>
<svg width="179px" height="170px" viewBox="0 0 179 170" version="1.1" xmlns="http://www.w3.org/2000/svg" xmlns:xlink="http://www.w3.org/1999/xlink">
    <!-- Generator: Sketch 3.8.3 (29802) - http://www.bohemiancoding.com/sketch -->
    <title>Group</title>
    <desc>Created with Sketch.</desc>
    <defs></defs>
    <g id="Page-1" stroke="none" stroke-width="1" fill="none" fill-rule="evenodd">
        <g id="Group" transform="translate(89.150000, 85.000000) scale(1, -1) translate(-89.150000, -85.000000) " fill="#000000">
            <path d="M101.5,168.8 C101.3,168.1 100.9,164.1 100.5,160 C99.2,143.9 96.5,124 95,120 C94.5,118.6 93.8,115 93.5,112 C92.5,103 88.3,90.9 83.9,84.2 C77.3,74.2 63.8,65.3 46.9,59.9 C33.1,55.5 34,54.9 34,68.8 L34,80.6 L44.4,89.6 L54.7,98.6 L29.6,100.4 C15.8,101.4 3.5,102.1 2.3,101.9 C0.2,101.5 0.5,100.9 6.5,91.6 L13,81.8 L12.9,68.6 C12.9,57.2 11.8,47 9.6,36.5 C9.2,34.9 6.9,26.4 4.5,17.8 C2,9.1 0,1.6 0,1 C0,0.4 7,0 20.4,0 L40.9,0 L40.4,4.3 C40.2,6.7 38.9,14.2 37.5,21 C36.1,27.8 35.1,33.5 35.3,33.6 C35.4,33.8 38.5,34.4 42.2,35 C50.6,36.3 61.1,39.5 67.3,42.6 C69.9,44 72,44.7 72,44.3 C72,43.8 72.4,44 72.8,44.6 C73.5,45.7 83.1,52.4 84,52.5 C84.3,52.5 86.9,55.2 89.8,58.5 C92.8,61.8 95.8,64.9 96.6,65.3 C97.4,65.7 98,66.5 98,67 C98,67.5 99.3,69.8 100.9,72.2 C110.3,86.1 117.8,111.9 119.6,136.3 L120.3,146 L136.1,146 L151.9,146 L152.9,142.3 C155.8,131.7 156.2,127.8 154.9,126.9 C154.1,126.4 149.1,123.2 143.7,119.9 C138.3,116.6 134,113.5 134.2,113 C134.4,112.6 137.9,106.1 142,98.6 C148.8,86.3 149.7,85 152,85.2 C154.2,85.5 154.9,86.6 157.9,95.8 L161.3,106.2 L168.8,112.2 C173,115.5 176.9,118.4 177.6,118.7 C179.3,119.3 177.6,132.6 172.7,156 L170.5,166.5 L144.5,167.2 C130.2,167.5 115.6,168.3 112,168.9 C103.5,170.3 102,170.3 101.5,168.8 L101.5,168.8 Z" id="Shape"></path>
        </g>
    </g>
</svg>