<?xml version="1.0" encoding="UTF-8" standalone="no"?>
<svg width="161px" height="166px" viewBox="0 0 161 166" version="1.1" xmlns="http://www.w3.org/2000/svg" xmlns:xlink="http://www.w3.org/1999/xlink">
    <!-- Generator: Sketch 3.8.3 (29802) - http://www.bohemiancoding.com/sketch -->
    <title>Group</title>
    <desc>Created with Sketch.</desc>
    <defs></defs>
    <g id="Page-1" stroke="none" stroke-width="1" fill="none" fill-rule="evenodd">
        <g id="Group" transform="translate(80.300000, 82.850000) scale(1, -1) translate(-80.300000, -82.850000) " fill="#000000">
            <path d="M93,144 C82,131.9 73,121.7 73,121.3 C73,120.9 73.9,117.5 74.9,113.8 L76.8,107.1 L85.4,107.7 C105.9,109 125.3,98.3 133.3,81.3 C135.7,76.2 136,74.4 135.8,66.7 C135.6,55.9 133.6,48.7 129.1,42.8 C125.1,37.6 116.7,31.7 108,28 C102.1,25.6 101.5,25.5 81.8,25.8 L61.5,26.1 L61.5,13 L61.5,1.42108547e-14 L85.5,1.42108547e-14 C107.6,1.42108547e-14 109.9,0.2 115.2,2.2 C142.7,12.4 160.6,38.8 160.6,69 C160.6,75.3 160,81.9 159,85.5 C155.3,99.6 145.7,112.6 132.1,121.8 L125.1,126.5 L120,146 C117.2,156.6 114.5,165.5 113.9,165.6 C113.4,165.8 104,156 93,144 L93,144 Z M110.4,131.7 C111.1,127.4 111.5,123.7 111.3,123.6 C111.2,123.4 106.2,123 100.3,122.7 L89.6,122.2 L98.7,132.1 C104.6,138.5 108.2,141.5 108.6,140.7 C108.9,140.1 109.8,136 110.4,131.7 L110.4,131.7 Z" id="Shape"></path>
            <path d="M17.2,49.8 C0.2,23.7 -1,21.5 0.5,19 C1.6,17.2 47.9,14.6 50.9,16.2 C53.7,17.7 52.7,21.3 43,43 C33.5,64.6 32.1,67 30,67 C29.2,67 23.4,59.2 17.2,49.8 L17.2,49.8 Z M33.4,37.6 C35.6,32.4 37.5,27.9 37.5,27.6 C37.5,26.8 19.5,28 17.9,28.9 C16.7,29.5 26.9,47 28.4,47 C28.9,47 31.1,42.8 33.4,37.6 L33.4,37.6 Z" id="Shape"></path>
        </g>
    </g>
</svg>