<?xml version="1.0" encoding="UTF-8" standalone="no"?>
<svg width="100px" height="182px" viewBox="0 0 100 182" version="1.1" xmlns="http://www.w3.org/2000/svg" xmlns:xlink="http://www.w3.org/1999/xlink">
    <!-- Generator: Sketch 3.8.3 (29802) - http://www.bohemiancoding.com/sketch -->
    <title>Group</title>
    <desc>Created with Sketch.</desc>
    <defs></defs>
    <g id="Page-1" stroke="none" stroke-width="1" fill="none" fill-rule="evenodd">
        <g id="Group" transform="translate(49.800000, 90.900000) scale(1, -1) translate(-49.800000, -90.900000) " fill="#000000">
            <path d="M14.6,181.7 C14.6,181.4 12.8,168.6 10.7,153.2 C8.5,137.8 5.1,111.3 3,94.4 C-0.2,67.8 -0.5,63.4 0.7,62.2 C1.6,61.3 7.7,60.2 18.4,59 L34.7,57.3 L40.4,50.2 C43.6,46.4 50,38.3 54.6,32.3 L63,21.3 L64.2,11 C64.8,5.3 65.6,0.4 65.9,0.1 C66.5,-0.5 99.4,26.7 99.5,27.9 C99.6,28.2 94.7,30.2 88.6,32.2 C76.2,36.3 77.2,35.4 58.5,59.2 C42.3,79.7 44,75.6 32.2,120.2 C16.9,178.3 16.4,180.1 15.4,181.2 C15,181.7 14.6,181.9 14.6,181.7 L14.6,181.7 Z M26.1,94.5 L31.3,72.6 L25.7,73.2 C13.7,74.5 13.6,74.5 14.1,77.5 C14.4,79 15.5,87.4 16.6,96.2 C19.2,116.8 19.9,120.7 20.4,118.3 C20.6,117.3 23.2,106.6 26.1,94.5 L26.1,94.5 Z" id="Shape"></path>
            <path d="M51.6,117 C46.9,115.1 43,113.4 42.9,113.3 C42.5,113 58.8,71.3 59.7,70.3 C60.4,69.5 76.6,76.4 76.6,77.6 C76.6,78.3 60.8,119.8 60.4,120.2 C60.2,120.4 56.3,119 51.6,117 L51.6,117 Z" id="Shape"></path>
        </g>
    </g>
</svg>