<?xml version="1.0" encoding="UTF-8" standalone="no"?>
<svg width="166px" height="172px" viewBox="0 0 166 172" version="1.1" xmlns="http://www.w3.org/2000/svg" xmlns:xlink="http://www.w3.org/1999/xlink">
    <!-- Generator: Sketch 3.8.3 (29802) - http://www.bohemiancoding.com/sketch -->
    <title>Group</title>
    <desc>Created with Sketch.</desc>
    <defs></defs>
    <g id="Page-1" stroke="none" stroke-width="1" fill="none" fill-rule="evenodd">
        <g id="Group" transform="translate(82.950000, 86.000000) scale(1, -1) translate(-82.950000, -86.000000) " fill="#000000">
            <path d="M95.4,169.3 C95.6,167.7 96.4,161.8 97,156 C97.7,150.2 98.6,143.9 99.1,141.9 L100,138.3 L112.7,137.6 C119.8,137.3 128.5,136.7 132.2,136.4 L138.8,135.8 L139.4,131.1 C139.7,128.6 140.7,116.8 141.5,105 C142.3,93.2 143.2,81.7 143.5,79.5 L144,75.5 L138.3,73.3 C135.1,72.1 130.4,70.5 127.9,69.9 L123.3,68.7 L115.7,73.9 C111.5,76.8 107.7,79.7 107.2,80.3 C106.6,81 104.8,85 103,89.3 C101.3,93.5 99.2,97 98.5,97 C97.8,97 94.1,95.6 90.3,93.9 C64.2,82 64.3,82 54.9,82 L46,82 L46,118 C46,153.1 46,154 44,154 C41.1,154 11.2,121.5 10,117 C9.4,115.1 7.9,103.1 6.5,90.4 C5.1,77.8 3.1,60.7 2,52.4 C-0.4,34.5 -0.5,31 1.4,31 C3.2,31 12.4,37.8 28.7,51.2 L42,62 L55.3,62 L68.7,62 L71.3,53.2 C72.8,48.3 74,44 74,43.5 C74,43.1 71,42.9 67.3,43.1 C56,43.5 54.8,43.3 55.2,40.8 C55.4,39.3 59.7,35.8 69.5,29.2 C77.2,23.9 89.9,15.3 97.8,9.8 C105.6,4.4 112.4,0 112.9,0 C113.4,0 114.3,0.7 115,1.5 C116,2.7 115.1,6.7 110,23.5 L103.7,44 L98.4,44 L93.1,44 L90.5,52.2 C89.1,56.8 87.7,61.3 87.4,62.3 C86.3,65.8 90.6,63.8 106.9,53 L123.6,42 L132.5,45.8 C137.5,47.9 146.8,51.8 153.3,54.5 C159.9,57.1 165.4,60 165.8,60.8 C166.1,61.7 165.4,71.1 164.2,81.9 C163,92.7 161.1,111 159.9,122.5 C158.8,134.1 157.5,145.9 157.2,148.9 L156.5,154.2 L137,160.1 C120.7,165.1 96.4,172 95.2,172 C95,172 95.1,170.8 95.4,169.3 L95.4,169.3 Z M35.1,104.5 C34.5,92 34,79.7 34,77.1 L34,72.3 L24.4,64 C19.2,59.5 14.7,56 14.5,56.2 C14.3,56.4 15.5,68.7 17.2,83.5 L20.3,110.5 L27.8,119.3 C31.9,124.1 35.5,127.9 35.7,127.6 C35.9,127.4 35.7,117 35.1,104.5 L35.1,104.5 Z" id="Shape"></path>
        </g>
    </g>
</svg>