<?xml version="1.0" encoding="UTF-8" standalone="no"?>
<svg width="168px" height="150px" viewBox="0 0 168 150" version="1.1" xmlns="http://www.w3.org/2000/svg" xmlns:xlink="http://www.w3.org/1999/xlink">
    <!-- Generator: Sketch 3.8.3 (29802) - http://www.bohemiancoding.com/sketch -->
    <title>Group</title>
    <desc>Created with Sketch.</desc>
    <defs></defs>
    <g id="Page-1" stroke="none" stroke-width="1" fill="none" fill-rule="evenodd">
        <g id="Group" transform="translate(83.550000, 75.000000) scale(1, -1) translate(-83.550000, -75.000000) " fill="#000000">
            <path d="M10.7,148.6 C10.4,147.8 11.1,142.3 12.2,136.3 C13.3,130.4 14,123.7 13.7,121.5 C13.5,119.3 12.2,108.7 10.8,98 C9.4,87.3 7.2,68.4 5.8,56 C4.4,43.6 2.4,26.8 1.3,18.7 C-0.8,2.7 -0.5,1.42108547e-14 3.6,1.42108547e-14 C4.8,1.42108547e-14 12.4,2.2 20.4,5 C35.6,10.1 42,11.5 56.3,12.5 C61,12.9 75.2,14.4 87.8,16 C100.5,17.6 117,19.5 124.5,20.2 L138.3,21.4 L151,17.3 C165.9,12.5 168,12.7 166.8,18.8 C166.4,20.9 164.6,30.5 162.9,40.3 C160.9,51.4 159.2,58.5 158.3,59 C156.3,60.2 153.2,58.7 143.9,52.1 C138.6,48.4 134.2,46 131.7,45.6 C129.6,45.3 113,43.6 94.8,42 C76.7,40.3 54.9,38.3 46.4,37.4 C38,36.6 30.9,36.1 30.6,36.3 C30.4,36.6 31.1,45 32.2,55.1 C33.3,65.2 35.4,84.5 36.8,98 C39.2,120.3 39.6,122.7 41.6,124.4 C48.3,130 55.3,137.2 55.3,138.4 C55.3,140.8 53.1,141.7 41.8,143.9 C35.8,145.2 27.4,147 23.1,148.1 C14,150.4 11.4,150.5 10.7,148.6 L10.7,148.6 Z" id="Shape"></path>
            <path d="M92.9,119.2 C92.5,118.5 89.7,97.6 87.9,81.9 C87.4,77.4 88.7,75 91.6,75 C94.4,75 134,88.5 135.9,90.1 C138.9,92.6 137.4,94.8 129.1,100 C111.9,110.6 95.8,120 94.6,120 C94,120 93.2,119.6 92.9,119.2 L92.9,119.2 Z M109.8,97.9 C114,95.6 117.3,93.6 117.1,93.5 C116.5,92.9 100.9,89.1 100.5,89.5 C100,89.9 101.3,102 101.8,102 C102,102 105.6,100.1 109.8,97.9 L109.8,97.9 Z" id="Shape"></path>
        </g>
    </g>
</svg>