<?xml version="1.0" encoding="UTF-8" standalone="no"?>
<svg width="150px" height="172px" viewBox="0 0 150 172" version="1.1" xmlns="http://www.w3.org/2000/svg" xmlns:xlink="http://www.w3.org/1999/xlink">
    <!-- Generator: Sketch 3.8.3 (29802) - http://www.bohemiancoding.com/sketch -->
    <title>Group</title>
    <desc>Created with Sketch.</desc>
    <defs></defs>
    <g id="Page-1" stroke="none" stroke-width="1" fill="none" fill-rule="evenodd">
        <g id="Group" transform="translate(75.000000, 85.900000) scale(1, -1) translate(-75.000000, -85.900000) " fill="#000000">
            <path d="M37.7,170.6 C37.4,169.8 36.8,153.3 36.4,133.9 L35.7,98.6 L30.2,90 C27.3,85.3 21.7,76.9 17.9,71.3 C14.1,65.7 11,60.6 11,60 C11,59.4 11.9,56.4 13,53.2 C14.2,50.1 16.6,41.9 18.6,35 L22,22.5 L11,11.8 C5,5.9 0,0.9 0,0.6 C0,0.2 11.3,0 25,0 L50,0 L50,7.3 C50,16.8 48.7,23.2 43.4,41.2 L39,56 L43.4,63.7 C45.8,68 49.4,74.5 51.4,78.3 L55.1,85 L71.8,85 L88.5,84.9 L101.4,63.2 L114.3,41.6 L113.7,34 C113.2,25.5 110.2,17.5 106.4,13.9 C104.7,12.3 104,10.6 104,7.8 L104,4 L127,4 C139.7,4 150,4.2 150,4.5 C150,4.8 147.1,8.7 143.5,13.2 L137,21.4 L137,37 L137,52.6 L133.4,58.6 C131.4,61.8 128,67.4 126,71 C123.9,74.6 119.5,81.9 116.2,87.3 L110.3,97.1 L117.2,114.3 C126.3,137 136.3,165 135.6,165.8 C135.3,166.1 123.6,166.9 109.8,167.6 C59.8,170.1 43.5,171.1 40.9,171.6 C39.1,171.9 38.1,171.6 37.7,170.6 L37.7,170.6 Z M85.4,153.5 C100.2,152.7 112.5,151.8 112.8,151.6 C113,151.4 110.6,144.5 107.5,136.3 C104.4,128.2 101.1,119.6 100.3,117.2 C99.5,114.8 98.1,112.6 97.3,112.3 C96.6,112 86.7,112.1 75.5,112.5 L55,113.2 L55,124.4 C55,140.9 56.1,155 57.4,155 C58,155 70.6,154.3 85.4,153.5 L85.4,153.5 Z" id="Shape"></path>
        </g>
    </g>
</svg>