<?xml version="1.0" encoding="UTF-8" standalone="no"?>
<svg width="198px" height="51px" viewBox="0 0 198 51" version="1.1" xmlns="http://www.w3.org/2000/svg" xmlns:xlink="http://www.w3.org/1999/xlink">
    <!-- Generator: Sketch 3.8.3 (29802) - http://www.bohemiancoding.com/sketch -->
    <title>Group</title>
    <desc>Created with Sketch.</desc>
    <defs></defs>
    <g id="Page-1" stroke="none" stroke-width="1" fill="none" fill-rule="evenodd">
        <g id="Group" transform="translate(98.750000, 25.100000) scale(1, -1) translate(-98.750000, -25.100000) " fill="#000000">
            <path d="M1.2,33 C-0.3,17.1 -0.3,15.6 1.2,14 C3.4,11.6 3.8,11.6 10.4,16.2 L16.3,20.1 L35.1,14.7 C45.5,11.8 62.1,7.3 71.9,4.7 L89.8,0 L102.4,1.7 C109.3,2.6 129.1,5.3 146.4,7.8 L177.8,12.2 L185.7,8.7 C197.6,3.6 197.5,3.4 197.5,25.3 L197.5,42.8 L194.3,44.4 C191.1,45.9 191.1,45.9 182.5,39.7 L174,33.5 L146,30.8 C130.6,29.3 110.4,27.6 101,26.8 L84,25.5 L73.5,28.3 C17.8,42.6 19.2,42.2 13.3,46.3 C10.2,48.4 6.6,50.2 5.3,50.2 C2.9,50.2 2.8,50.1 1.2,33 L1.2,33 Z" id="Shape"></path>
        </g>
    </g>
</svg>