<?xml version="1.0" encoding="UTF-8" standalone="no"?>
<svg width="146px" height="160px" viewBox="0 0 146 160" version="1.1" xmlns="http://www.w3.org/2000/svg" xmlns:xlink="http://www.w3.org/1999/xlink">
    <!-- Generator: Sketch 3.8.3 (29802) - http://www.bohemiancoding.com/sketch -->
    <title>Group</title>
    <desc>Created with Sketch.</desc>
    <defs></defs>
    <g id="Page-1" stroke="none" stroke-width="1" fill="none" fill-rule="evenodd">
        <g id="Group" transform="translate(72.550000, 79.850000) scale(1, -1) translate(-72.550000, -79.850000) " fill="#000000">
            <path d="M11.4,153.9 C5.6,150.7 0.5,147.9 0.1,147.7 C-0.5,147.5 9.7,118.7 11,117.2 C11.1,117 13.6,118.2 16.5,119.9 L21.7,122.8 L26.5,121 C55.4,109.6 82.7,88.2 103.2,60.9 L110.4,51.3 L110.4,38.2 L110.4,25.1 L107.2,25.6 C74.4,31.5 54.8,38.8 39.7,50.8 L35.4,54.1 L35.4,61.1 C35.4,64.9 35,68 34.6,68 C34.1,68 29.9,65.3 25.3,61.9 C18.2,56.8 16,54.5 11.2,47 L5.4,38 L7.7,36.7 C26.2,25.3 60.7,11.6 80.9,7.6 C87,6.4 140.6,1.42108547e-14 144.7,1.42108547e-14 C145.1,1.42108547e-14 145.2,1.5 144.9,3.3 C144.5,5.8 139.4,73.6 139.4,77 C139.4,77.5 134.3,79.1 128.2,80.5 L116.9,83.2 L111.4,89.8 C96.7,107.3 88.2,114.9 71.5,125.3 C62.5,131 44,140.3 36.4,143 C33.6,144 32,145.7 28.4,151.8 C25.9,155.9 23.5,159.5 22.9,159.6 C22.4,159.7 17.2,157.2 11.4,153.9 L11.4,153.9 Z M131.4,37.5 L131.4,25 L126.9,25 L122.4,25 L122.4,37.5 L122.4,50 L126.9,50 L131.4,50 L131.4,37.5 L131.4,37.5 Z" id="Shape"></path>
        </g>
    </g>
</svg>