<?xml version="1.0" encoding="UTF-8" standalone="no"?>
<svg width="203px" height="82px" viewBox="0 0 203 82" version="1.1" xmlns="http://www.w3.org/2000/svg" xmlns:xlink="http://www.w3.org/1999/xlink">
    <!-- Generator: Sketch 3.8.3 (29802) - http://www.bohemiancoding.com/sketch -->
    <title>Group</title>
    <desc>Created with Sketch.</desc>
    <defs></defs>
    <g id="Page-1" stroke="none" stroke-width="1" fill="none" fill-rule="evenodd">
        <g id="Group" transform="translate(101.100000, 40.950000) scale(1, -1) translate(-101.100000, -40.950000) " fill="#000000">
            <path d="M182,77.1 L175.4,72.3 L116.5,67.1 C84,64.2 49.5,60.7 39.6,59.2 L21.8,56.6 L14.1,59.3 C9.9,60.8 5,62 3.3,62 L0,62 L0,52.3 C0,44.5 0.5,41 2.7,34.4 C6.2,23.5 7.3,23.2 16.2,31.1 L22.9,37.1 L50.7,39.5 C65.9,40.9 79.1,42 80,42 C80.9,42 83.7,40.5 86.1,38.6 C92.1,34 117.6,22.8 134.1,17.4 C145,13.9 150.9,12.6 163.8,11.1 C178.9,9.3 180.3,9 189.5,4.6 C194.9,2.1 199.4,-1.42108547e-14 199.5,-1.42108547e-14 C199.7,-1.42108547e-14 200.1,3.9 200.4,8.8 C200.8,13.6 201.3,19.8 201.6,22.6 L202.2,27.7 L177.9,28.9 L153.7,30.1 L144.1,34 C133,38.4 121.1,45 121,46.7 C121,48.2 128.4,48.8 157.5,49.5 C177.4,50 182.8,49.8 189.3,48.5 C193.6,47.6 197.7,47.1 198.4,47.3 C200.9,48.3 200.8,53.4 198.3,66.8 C196,78.9 195.5,80.2 193.3,81.1 C189.5,82.5 188.9,82.3 182,77.1 L182,77.1 Z" id="Shape"></path>
        </g>
    </g>
</svg>