<?xml version="1.0" encoding="UTF-8" standalone="no"?>
<svg width="206px" height="88px" viewBox="0 0 206 88" version="1.1" xmlns="http://www.w3.org/2000/svg" xmlns:xlink="http://www.w3.org/1999/xlink">
    <!-- Generator: Sketch 3.8.3 (29802) - http://www.bohemiancoding.com/sketch -->
    <title>Group</title>
    <desc>Created with Sketch.</desc>
    <defs></defs>
    <g id="Page-1" stroke="none" stroke-width="1" fill="none" fill-rule="evenodd">
        <g id="Group" transform="translate(102.700000, 43.650000) scale(1, -1) translate(-102.700000, -43.650000) " fill="#000000">
            <path d="M181.6,85.3 C176.9,81.4 169.3,78.4 164.2,78.4 L159.4,78.4 L160.1,72.7 C160.5,69.6 161,66.6 161.2,65.9 C161.5,65.3 159.5,64.1 156.5,63.2 L151.4,61.5 L152.1,63.7 C153.5,68.6 153.5,68.6 142.6,71 C136.8,72.3 131.1,73.6 130,73.9 C128.2,74.3 127.6,73.6 126.1,69.6 C125.1,67 124,64.5 123.5,64 C123.1,63.5 117.8,65.1 111.6,67.4 C105,70 100.2,71.3 99.6,70.8 C99.1,70.3 95.5,63.9 91.6,56.7 L84.4,43.4 L67.9,31.9 C58.8,25.5 50.8,20.5 50.2,20.7 C49.1,21.2 31,35.5 22.3,42.7 L17.5,46.8 L12.5,41.8 C9.7,39.1 5.7,34.6 3.5,31.7 C-2.3,24.3 -1.3,23 10.9,21.4 L20.3,20.2 L33.2,10.8 C40.3,5.6 47.1,0.9 48.2,0.3 C50,-0.6 54.9,0.9 78.9,9.9 C101.4,18.3 107.5,21 107.9,22.6 C108.2,23.7 107.3,27.9 105.8,32 L103.2,39.5 L105.9,42.1 L108.5,44.8 L122.2,38.9 L135.9,33.1 L152.9,36.9 C177.9,42.4 175.4,41.2 180.9,50.3 C185.2,57.6 186,58.4 189.4,59 C200.7,60.9 206.2,63.2 205.3,65.6 C204.8,67.1 186,87.2 185.1,87.3 C184.6,87.3 183,86.4 181.6,85.3 L181.6,85.3 Z" id="Shape"></path>
        </g>
    </g>
</svg>