<?xml version="1.0" encoding="UTF-8" standalone="no"?>
<svg width="123px" height="171px" viewBox="0 0 123 171" version="1.1" xmlns="http://www.w3.org/2000/svg" xmlns:xlink="http://www.w3.org/1999/xlink">
    <!-- Generator: Sketch 3.8.3 (29802) - http://www.bohemiancoding.com/sketch -->
    <title>Group</title>
    <desc>Created with Sketch.</desc>
    <defs></defs>
    <g id="Page-1" stroke="none" stroke-width="1" fill="none" fill-rule="evenodd">
        <g id="Group" transform="translate(61.400000, 85.500000) scale(1, -1) translate(-61.400000, -85.500000) " fill="#000000">
            <path d="M47.7,165.4 L42,159.8 L45.3,152.6 C49.3,143.9 51.4,135.9 52.3,125.8 C52.9,119.5 52.5,116 50.3,105.5 C48.8,98.5 47.8,92.7 48,92.6 C48.6,92 62.2,87 62.3,87.3 C62.4,87.4 63.8,93.8 65.5,101.5 L68.5,115.5 L67,128.8 C66.2,136.1 65.8,142.3 66.1,142.7 C66.7,143.2 92.5,138.2 93.7,137.4 C93.8,137.2 90.8,131.1 87,123.8 C82.4,115.2 79.2,107.6 77.9,102.3 C75.3,92.2 75.3,91.3 77.8,90.5 C79.7,89.9 79.7,89.7 77.1,86.5 C74.5,83.3 74.4,83.3 72.9,85.1 C72,86.1 69.9,87.3 68.2,87.6 C65.6,88.1 64.7,87.8 63.2,85.7 L61.3,83.2 L59.3,85.6 C56.5,89.1 50.8,90.2 48,88 C43.6,84.4 42.6,77.8 45.9,73.6 C47.6,71.5 48.8,71 52.4,71 C55.7,71 57.1,71.5 58,73 C59.2,74.8 59.3,74.7 60.3,71.8 C61.6,67.7 63.7,66.6 68,67.4 C70.7,67.9 71.9,68.8 72.8,71.1 C74.1,74.1 74.1,74.1 76.2,72.2 C79,69.6 82,68.8 86.1,69.5 C90.3,70.3 91.8,73.1 91.8,79.8 C91.7,85.5 90.2,87.8 85.7,88.7 L82.3,89.5 L86.3,90 L90.3,90.5 L95,104 C100.2,118.9 108.2,135.6 110.7,136.9 C111.6,137.4 114.7,138.3 117.6,139.1 C120.4,139.8 122.8,140.8 122.8,141.3 C122.8,142.2 117.7,159.3 117.3,159.8 C117.2,159.9 113.8,158.2 109.8,156 C101.5,151.3 103.5,151.2 79,156.2 L63.6,159.4 L61.1,164.4 C56.8,172.9 55.3,173 47.7,165.4 L47.7,165.4 Z" id="Shape"></path>
            <path d="M29.8,65.3 C25.2,59 19.9,51.7 18.2,49.1 L14.9,44.3 L7.8,43.8 C3.9,43.5 0.5,43 0.1,42.6 C-0.6,42 3.6,25 4.7,23.7 C5.1,23.3 8.1,24 11.4,25.2 L17.3,27.3 L47.8,19.5 L78.3,11.7 L81.2,5.9 C82.8,2.6 84.6,0 85.2,0 C85.8,0 89.7,1.9 93.8,4.3 C103.3,9.7 103.7,11.4 97.5,19.1 L93.1,24.5 L91.4,41.5 C90.5,50.9 89.5,60.2 89.2,62.3 L88.6,66 L79.6,66 L70.5,66 L71.2,58.8 C71.6,54.8 72.6,46.8 73.4,41.2 C74.3,35.5 74.8,30.7 74.6,30.5 C74.3,30.2 36,39.4 33,40.5 C32.2,40.8 35,44.9 40.7,51.7 C45.7,57.7 49.8,63 49.8,63.5 C49.8,64.5 40,76.4 38.9,76.7 C38.6,76.8 34.5,71.7 29.8,65.3 L29.8,65.3 Z" id="Shape"></path>
        </g>
    </g>
</svg>