<?xml version="1.0" encoding="UTF-8" standalone="no"?>
<svg width="153px" height="173px" viewBox="0 0 153 173" version="1.1" xmlns="http://www.w3.org/2000/svg" xmlns:xlink="http://www.w3.org/1999/xlink">
    <!-- Generator: Sketch 3.8.3 (29802) - http://www.bohemiancoding.com/sketch -->
    <title>Group</title>
    <desc>Created with Sketch.</desc>
    <defs></defs>
    <g id="Page-1" stroke="none" stroke-width="1" fill="none" fill-rule="evenodd">
        <g id="Group" transform="translate(76.100000, 86.300000) scale(1, -1) translate(-76.100000, -86.300000) " fill="#000000">
            <path d="M47.4,157.1 C23.8,148.7 3.4,141.1 2.2,140.2 C-0.7,138.1 -0.7,135.6 2.2,133.5 C3.4,132.6 19.1,121.7 37.2,109.2 C55.2,96.7 69.9,85.9 69.9,85.3 C69.8,84.6 65.6,65.9 60.5,43.6 C55.3,21.3 51.4,2.6 51.6,1.9 C51.9,1.2 52.9,0.4 53.9,0.1 C55.6,-0.4 149.5,31.8 151.2,33.5 C152.1,34.4 152.5,39.3 151.8,40 C151.6,40.2 135.7,51.3 116.4,64.6 C97.2,77.9 81,89.2 80.5,89.6 C80.1,90.1 83.6,108.2 88.3,129.9 C93.1,151.6 96.7,170.1 96.3,171 C95.9,172 94.6,172.6 93,172.5 C91.6,172.4 71.1,165.5 47.4,157.1 L47.4,157.1 Z M73.6,146.4 C73.4,145.7 71.4,137.5 69.3,128.3 C67,118.2 65.1,111.7 64.5,111.9 C62.8,112.6 36.4,131.7 36.2,132.4 C36,133 71.2,147.4 73.3,147.5 C73.7,147.6 73.9,147 73.6,146.4 L73.6,146.4 Z M103.9,52.8 L122,40.9 L97.7,32.4 C84.3,27.7 73.3,23.9 73.2,24 C73,24.1 83.5,60.9 84.4,63.4 C84.6,64 85.1,64.6 85.3,64.6 C85.6,64.6 93.9,59.3 103.9,52.8 L103.9,52.8 Z" id="Shape"></path>
        </g>
    </g>
</svg>