<?xml version="1.0" encoding="UTF-8" standalone="no"?>
<svg width="205px" height="120px" viewBox="0 0 205 120" version="1.1" xmlns="http://www.w3.org/2000/svg" xmlns:xlink="http://www.w3.org/1999/xlink">
    <!-- Generator: Sketch 3.8.3 (29802) - http://www.bohemiancoding.com/sketch -->
    <title>Group</title>
    <desc>Created with Sketch.</desc>
    <defs></defs>
    <g id="Page-1" stroke="none" stroke-width="1" fill="none" fill-rule="evenodd">
        <g id="Group" transform="translate(102.350000, 59.950000) scale(1, -1) translate(-102.350000, -59.950000) " fill="#000000">
            <path d="M147.3,119.4 C146.6,119.1 136.6,108.5 124.9,95.9 C113.3,83.3 103.3,73 102.6,73 C102,73 87.8,79.8 71.1,88 C54.5,96.3 40.5,103 40.1,103 C39.7,103 37.1,101 34.2,98.6 L29.1,94.2 L14.5,94.7 L0,95.3 L0,92.4 C0,88.4 4.1,68.8 5.3,67.2 C7,65.1 9.1,65.9 14.5,70.9 C19.1,75 20.6,75.8 25.2,76.3 C34.5,77.5 35.5,77.2 61.4,66.3 C83.7,56.9 86.7,55.4 85.7,54 C85.1,52.9 72.6,48.4 52,41.6 C33.9,35.8 19,30.4 18.7,29.7 C18.5,29.1 18.6,27.8 18.9,26.9 C19.6,24.8 50,-1.42108547e-14 51.7,-1.42108547e-14 C52.4,-1.42108547e-14 74.4,20 100.7,44.5 C126.9,69 148.7,89 149.1,89 C149.6,89 155.9,82.5 163.2,74.6 C174.7,62.2 176.9,59.2 179.4,53 C181,49 183,45.6 183.8,45.2 C184.8,44.9 188.1,47.6 193.7,53.6 C203.7,64.3 205.2,66.3 204.5,68.1 C204.2,68.9 200.9,71 197.2,72.7 C188.4,76.9 176.8,88.2 162.7,106.3 C152.5,119.4 150.8,120.8 147.3,119.4 L147.3,119.4 Z M73,34.6 C70.3,31.9 51.6,17 50.9,17 C50.6,17 48.1,18.6 45.5,20.7 L40.7,24.3 L57.1,30.1 C66.1,33.2 73.7,35.8 74,35.9 C74.2,36 73.8,35.4 73,34.6 L73,34.6 Z" id="Shape"></path>
        </g>
    </g>
</svg>