<?xml version="1.0" encoding="UTF-8" standalone="no"?>
<svg width="182px" height="140px" viewBox="0 0 182 140" version="1.1" xmlns="http://www.w3.org/2000/svg" xmlns:xlink="http://www.w3.org/1999/xlink">
    <!-- Generator: Sketch 3.8.3 (29802) - http://www.bohemiancoding.com/sketch -->
    <title>Group</title>
    <desc>Created with Sketch.</desc>
    <defs></defs>
    <g id="Page-1" stroke="none" stroke-width="1" fill="none" fill-rule="evenodd">
        <g id="Group" transform="translate(91.050000, 70.000000) scale(1, -1) translate(-91.050000, -70.000000) " fill="#000000">
            <path d="M12.8,135.9 L3.8,131.9 L1.6,118.2 C0.2,109.6 -0.2,104 0.3,102.9 C0.8,102 12.6,94.5 26.5,86.1 C50.9,71.6 52,70.8 56.6,64.4 L61.5,57.8 L67.4,68 C70.6,73.6 73.3,78.3 73.3,78.5 C73.3,78.7 70.3,79.8 66.6,81.1 C58.5,83.7 24.8,105.9 24,109 C23.7,110.3 24.8,112.6 27,115.5 L30.4,120 L26.7,130 C24.7,135.5 22.8,140 22.4,139.9 C22.1,139.9 17.7,138.1 12.8,135.9 L12.8,135.9 Z" id="Shape"></path>
            <path d="M82,95.8 C75.7,91.7 72.3,88.9 72.3,87.7 C72.3,86.7 75.5,81.9 79.4,77 C84.8,70.1 87,68 88.9,68 C91.7,68 91.5,67.4 94.4,85.8 C96,96.2 96.2,99.4 95.3,100.6 C94.6,101.3 93.5,102 92.9,102 C92.3,102 87.4,99.2 82,95.8 L82,95.8 Z" id="Shape"></path>
            <path d="M95.5,71.1 L90.2,66.4 L96.5,59.7 L102.8,53 L108.8,58.5 L114.8,63.9 L108.8,69.9 C105.5,73.3 102.4,76 101.8,76 C101.3,75.9 98.4,73.8 95.5,71.1 L95.5,71.1 Z" id="Shape"></path>
            <path d="M119.2,66.3 C118.7,64.7 116,59.2 113.3,53.9 C109.2,46 108.6,44 109.6,42.8 C110.7,41.4 112,41.6 121.8,44.5 C127.9,46.4 134.4,47.9 136.4,47.9 L140.1,48 L141.7,39.4 L143.3,30.9 L140.2,24.8 C137.8,20 137.4,18.5 138.5,17.9 C146.9,12.4 169.5,0 171,0 C172.6,0 174.3,2.1 177.8,8 C180.4,12.4 182.3,16.6 182,17.4 C181.7,18.1 175.9,21.7 169.1,25.4 L156.7,32.2 L157.1,39.1 C157.4,42.9 157.2,48.9 156.9,52.3 C156.2,58 155.9,58.8 153,60.6 C150.2,62.2 125.1,69 121.5,69 C120.8,69 119.8,67.8 119.2,66.3 L119.2,66.3 Z" id="Shape"></path>
        </g>
    </g>
</svg>