<?xml version="1.0" encoding="UTF-8" standalone="no"?>
<svg width="222px" height="58px" viewBox="0 0 222 58" version="1.1" xmlns="http://www.w3.org/2000/svg" xmlns:xlink="http://www.w3.org/1999/xlink">
    <!-- Generator: Sketch 3.8.3 (29802) - http://www.bohemiancoding.com/sketch -->
    <title>Group</title>
    <desc>Created with Sketch.</desc>
    <defs></defs>
    <g id="Page-1" stroke="none" stroke-width="1" fill="none" fill-rule="evenodd">
        <g id="Group" transform="translate(110.750000, 28.650000) scale(1, -1) translate(-110.750000, -28.650000) " fill="#000000">
            <path d="M45.5,56.7 C42.1,56.1 31.6,53.1 14.9,47.8 C-4.3,41.7 -4.2,42.4 11.4,26.2 L17.8,19.5 L22.4,21.8 C30.6,26 45.8,31.1 55,32.9 C67.8,35.4 88.4,34.5 101.2,31 C119.9,25.8 131.6,19.5 157.6,0.6 C159.2,-0.6 160.3,-0.2 167.2,4.7 C174.2,9.6 176.2,10.5 186.5,12.9 C195.4,15 219,23.8 221.4,26 C221.9,26.4 207.3,53.4 206.5,53.4 C206.2,53.4 204,50 201.5,45.8 C199,41.7 196.4,37.7 195.6,37.1 C194.9,36.4 187.2,33.1 178.6,29.8 L163,23.6 L155.5,27.7 C151.4,29.9 139.2,37 128.5,43.5 L109,55.2 L95.6,56.3 C82.8,57.3 50.8,57.6 45.5,56.7 L45.5,56.7 Z" id="Shape"></path>
        </g>
    </g>
</svg>