<?xml version="1.0" encoding="UTF-8" standalone="no"?>
<svg width="88px" height="172px" viewBox="0 0 88 172" version="1.1" xmlns="http://www.w3.org/2000/svg" xmlns:xlink="http://www.w3.org/1999/xlink">
    <!-- Generator: Sketch 3.8.3 (29802) - http://www.bohemiancoding.com/sketch -->
    <title>Group</title>
    <desc>Created with Sketch.</desc>
    <defs></defs>
    <g id="Page-1" stroke="none" stroke-width="1" fill="none" fill-rule="evenodd">
        <g id="Group" transform="translate(43.900000, 85.900000) scale(1, -1) translate(-43.900000, -85.900000) " fill="#000000">
            <path d="M5.3,161.9 C-1.7,149.5 -1.7,147.7 5.3,146.7 C8.1,146.4 13.1,146 16.6,146 C22.4,145.9 22.8,146 22.8,148.2 C22.8,149.4 21,155.1 18.9,160.9 C13.6,175.1 12.8,175.2 5.3,161.9 L5.3,161.9 Z" id="Shape"></path>
            <path d="M72.1,123.2 C68.9,119.6 61.3,111.3 55.1,104.9 C32.2,80.8 24,61.9 23.2,31.1 L22.8,15.8 L18.7,9.7 C12.7,0.9 13.2,0.5 29.6,0.1 C45.6,-0.2 45.3,-0.6 43.2,12.9 C41.6,24 41.4,39.8 42.8,48.7 C45.5,65.3 52,78.6 62.8,90 C69.1,96.6 69.6,97 78.2,99.4 C83.2,100.8 87.4,102.2 87.7,102.4 C88.1,102.8 84.7,120.8 83.2,126 C83,126.9 81.7,128.1 80.3,128.7 C78.1,129.7 77.5,129.3 72.1,123.2 L72.1,123.2 Z" id="Shape"></path>
        </g>
    </g>
</svg>