<?xml version="1.0" encoding="UTF-8" standalone="no"?>
<svg width="76px" height="172px" viewBox="0 0 76 172" version="1.1" xmlns="http://www.w3.org/2000/svg" xmlns:xlink="http://www.w3.org/1999/xlink">
    <!-- Generator: Sketch 3.8.3 (29802) - http://www.bohemiancoding.com/sketch -->
    <title>Group</title>
    <desc>Created with Sketch.</desc>
    <defs></defs>
    <g id="Page-1" stroke="none" stroke-width="1" fill="none" fill-rule="evenodd">
        <g id="Group" transform="translate(37.650000, 85.800000) scale(1, -1) translate(-37.650000, -85.800000) " fill="#000000">
            <path d="M23.3,171.3 C8.1,170.8 8,170.6 15.4,155.8 C18.5,149.6 21.6,144.2 22.2,143.8 C25,141.9 27.1,143.7 35.3,154.7 C43.1,165 44,166.6 43.2,168.9 C42.1,171.8 42.1,171.9 23.3,171.3 L23.3,171.3 Z" id="Shape"></path>
            <path d="M19.2,124.3 C17.6,123.2 15.7,99.9 17,98.3 C17.7,97.5 20.5,97 24.3,97 C30.6,97 30.7,97 31.6,100.3 C33.2,105.4 34,122.7 32.7,123.5 C31,124.6 20.4,125.2 19.2,124.3 L19.2,124.3 Z" id="Shape"></path>
            <path d="M12.8,74.9 C-1.1,66.3 -0.6,66.7 0.7,64.2 C1.5,62.7 3.6,61.9 8.5,61 L15.3,59.7 L32.4,39.1 C49.3,18.7 49.5,18.4 51.3,11 C53.5,1.9 54.4,0 56.6,0 C57.5,0 62.2,4.2 67,9.4 C73.5,16.4 75.6,19.2 75.2,20.7 C74.8,22 72,24 67,26.4 C59.4,29.9 59.2,30.1 43.5,49.2 L27.7,68.5 L28,75 C28.3,80.9 28.1,81.5 26.3,81.8 C25.2,81.9 19.2,78.9 12.8,74.9 L12.8,74.9 Z" id="Shape"></path>
        </g>
    </g>
</svg>