<?xml version="1.0" encoding="UTF-8" standalone="no"?>
<svg width="206px" height="171px" viewBox="0 0 206 171" version="1.1" xmlns="http://www.w3.org/2000/svg" xmlns:xlink="http://www.w3.org/1999/xlink">
    <!-- Generator: Sketch 3.8.3 (29802) - http://www.bohemiancoding.com/sketch -->
    <title>Group</title>
    <desc>Created with Sketch.</desc>
    <defs></defs>
    <g id="Page-1" stroke="none" stroke-width="1" fill="none" fill-rule="evenodd">
        <g id="Group" transform="translate(103.000000, 85.500000) scale(1, -1) translate(-103.000000, -85.500000) " fill="#000000">
            <path d="M75.1,156.1 C61.9,141.9 60.9,140.5 57.4,131.8 C54.1,123.8 53.6,121.6 53.6,114.4 L53.6,106.2 L50,105.6 C48.1,105.2 45.9,104.7 45.2,104.4 C44.4,104.1 38,110.3 30,119 C16.7,133.4 15.9,134.1 12.6,133.8 L9.1,133.5 L4.2,119.7 C0.2,108.5 -0.5,105.5 0.4,103.6 C1.4,101.4 35.3,80 37.9,80 C38.6,80 45,82.5 52.1,85.5 C64.7,90.9 65.1,91 66.6,89.1 C67.4,88.1 77,77.2 88,65.1 L107.8,42.9 L110.5,33.7 C112.4,27 113.6,24.4 114.9,24.2 C116.9,23.8 137.5,36.5 138.3,38.7 C139,40.5 136.8,42.8 129.3,48 C124.6,51.2 117.5,58.8 100.1,79.1 C87.5,93.9 76.6,106.8 75.9,107.8 C75,109.2 76,111.5 82,121.8 C86,128.6 89.7,134.5 90.2,135 C91.3,136.1 170.6,24.1 177.9,11.2 C185.5,-2.2 185.1,-1.9 190.9,3.7 C193.5,6.3 197.2,11.2 199.1,14.5 C202.5,20.6 206.2,30.8 205.3,31.6 C205.1,31.8 200.7,32.4 195.5,32.8 L186.1,33.5 L140.4,102 C99.5,163.1 94.3,170.5 91.8,170.8 C89.4,171.1 87.3,169.3 75.1,156.1 L75.1,156.1 Z" id="Shape"></path>
        </g>
    </g>
</svg>