<?xml version="1.0" encoding="UTF-8" standalone="no"?>
<svg width="140px" height="174px" viewBox="0 0 140 174" version="1.1" xmlns="http://www.w3.org/2000/svg" xmlns:xlink="http://www.w3.org/1999/xlink">
    <!-- Generator: Sketch 3.8.3 (29802) - http://www.bohemiancoding.com/sketch -->
    <title>Group</title>
    <desc>Created with Sketch.</desc>
    <defs></defs>
    <g id="Page-1" stroke="none" stroke-width="1" fill="none" fill-rule="evenodd">
        <g id="Group" transform="translate(69.750000, 87.000000) scale(1, -1) translate(-69.750000, -87.000000) " fill="#000000">
            <path d="M100.8,171.8 C101.1,170.5 102,165 102.9,159.4 L104.4,149.4 L99.3,125.4 C96.5,112.3 94,100.5 93.7,99.2 C93.4,97.9 92.5,96.6 91.8,96.3 C91.1,96 81.9,97.3 71.5,99.1 L52.6,102.4 L47.3,113.2 C43,122 41.7,123.8 40.8,122.6 C39.6,120.9 29.6,91.2 26.5,80.2 L24.5,72.8 L27.2,73.4 C28.7,73.7 34.5,76.3 40.1,79.1 L50.3,84.2 L61.1,81.7 C67,80.3 76.7,78.2 82.6,77 L93.3,74.8 L94.8,70.1 C97,63.7 101,43.3 102.3,32.5 C103.2,25.2 103.1,22.2 101.8,16.5 C101,12.7 100.1,8.3 99.7,6.8 C99,3.2 98.9,3.2 117.1,7.4 C125.2,9.2 133.6,11.1 135.7,11.4 L139.5,12.1 L131.8,20.6 L124.1,29.2 L122.3,40.4 C121.4,46.6 119.2,58.6 117.4,67 L114.3,82.4 L115.8,92 C116.7,97.2 118,107.6 118.9,115 C121.5,138.2 122.7,143.7 126.1,147.3 C129.6,151 137.4,162.4 137.4,163.8 C137.4,164.3 136.4,165 135.2,165.4 C130.3,166.7 101.5,174 100.9,174 C100.6,174 100.6,173 100.8,171.8 L100.8,171.8 Z" id="Shape"></path>
            <path d="M53.7,59.4 L33.4,45.8 L38,40 C46.1,29.6 43.6,29.2 64.5,44.1 C74.6,51.3 83.3,57.5 83.7,58 C84.4,58.6 75,73.1 74.1,73 C74,73 64.8,66.8 53.7,59.4 L53.7,59.4 Z" id="Shape"></path>
            <path d="M5.5,35.3 L0,34.9 L17.5,17.4 C27,7.8 35.2,0 35.6,0 C36.6,0 36.6,11.1 35.7,25.3 L35.1,36 L23,35.8 C16.3,35.7 8.5,35.5 5.5,35.3 L5.5,35.3 Z M29.4,22.9 L29.4,16.9 L22.9,22.6 C19.3,25.8 16.4,28.5 16.4,28.7 C16.4,28.9 19.3,29 22.9,29 L29.4,29 L29.4,22.9 L29.4,22.9 Z" id="Shape"></path>
        </g>
    </g>
</svg>