<?xml version="1.0" encoding="UTF-8" standalone="no"?>
<svg width="158px" height="171px" viewBox="0 0 158 171" version="1.1" xmlns="http://www.w3.org/2000/svg" xmlns:xlink="http://www.w3.org/1999/xlink">
    <!-- Generator: Sketch 3.8.3 (29802) - http://www.bohemiancoding.com/sketch -->
    <title>Group</title>
    <desc>Created with Sketch.</desc>
    <defs></defs>
    <g id="Page-1" stroke="none" stroke-width="1" fill="none" fill-rule="evenodd">
        <g id="Group" transform="translate(79.000000, 85.500000) scale(1, -1) translate(-79.000000, -85.500000) " fill="#000000">
            <path d="M107.6,163.7 C105.1,159.4 102.9,155.6 102.8,155.2 C102.6,154.7 44.9,151.3 35.4,151.3 C33.7,151.3 32.3,149.2 27.9,139.6 C24.9,133.1 17.4,117.5 11.3,105 C5.1,92.5 0,81.7 0,81.1 C0,78.6 35.3,4.1 38.2,0.6 C39.4,-0.9 39.9,-0.5 65.5,18.7 C74.3,25.3 84.8,33.5 88.9,36.9 C93,40.3 98.4,44.1 100.9,45.4 C105.9,47.9 105.4,48 129.5,42.8 C141.3,40.3 158,38.4 158,39.6 C158,39.9 156.2,44.4 154,49.4 L150,58.7 L153,66.4 C154.6,70.7 156,74.8 156,75.4 C156,76.3 152.7,76.5 142.8,76 C113,74.6 92.5,73.1 90.8,72.2 C89.8,71.6 82.6,65.5 74.7,58.5 C66.9,51.5 58.6,44.3 56.2,42.5 L52,39.1 L52,84.7 L52,130.3 L55.8,130.3 C59.8,130.3 95.9,133.6 112.5,135.4 C124.4,136.8 127.2,138.3 135.1,147.5 C144.7,158.6 147.3,162.3 145.8,162.8 C145.1,163 138,164.8 130,166.8 C122,168.8 114.8,170.6 113.9,170.9 C112.7,171.2 111,169.3 107.6,163.7 L107.6,163.7 Z M35.8,63.3 L35.5,46.3 L27.8,63.8 L20,81.3 L27.8,98 L35.5,114.6 L35.8,97.4 C35.9,88 35.9,72.6 35.8,63.3 L35.8,63.3 Z M140,57.8 L140,50.3 L132.2,54.5 C127.8,56.9 124.2,59.3 124,59.8 C123.8,60.7 135.5,65 138.8,65.2 C139.6,65.3 140,63.2 140,57.8 L140,57.8 Z" id="Shape"></path>
        </g>
    </g>
</svg>