<?xml version="1.0" encoding="UTF-8" standalone="no"?>
<svg width="189px" height="143px" viewBox="0 0 189 143" version="1.1" xmlns="http://www.w3.org/2000/svg" xmlns:xlink="http://www.w3.org/1999/xlink">
    <!-- Generator: Sketch 3.8.3 (29802) - http://www.bohemiancoding.com/sketch -->
    <title>Group</title>
    <desc>Created with Sketch.</desc>
    <defs></defs>
    <g id="Page-1" stroke="none" stroke-width="1" fill="none" fill-rule="evenodd">
        <g id="Group" transform="translate(94.550003, 71.350000) scale(1, -1) translate(-94.550003, -71.350000) " fill="#000000">
            <path d="M0.900000029,141.5 C-0.600000019,139.8 -0.400000013,137.2 4.40000014,105.6 L9.60000031,71.5 L12.4000004,70.4 C15.0000005,69.3 16.6000005,70.2 45.2000015,89.9 C61.800002,101.2 75.3000024,110.6 75.3000024,110.8 C75.3000024,112.7 72.8000023,117.4 71.5000023,117.9 C69.3000022,118.8 23.5000008,135.7 11.7000004,140 C2.90000009,143.1 2.40000008,143.2 0.900000029,141.5 L0.900000029,141.5 Z M35.6000011,116.9 C44.2000014,113.7 51.3000017,110.8 51.3000017,110.5 C51.3000017,110 44.0000014,105.7 27.7000009,96.7 L21.6000007,93.4 L19.4000006,107.1 C16.9000005,123.2 16.9000005,123.8 18.6000006,123.1 C19.2000006,122.9 26.9000009,120.1 35.6000011,116.9 L35.6000011,116.9 Z" id="Shape"></path>
            <path d="M127.100004,73 C125.400004,71.8 125.500004,69.8 128.100004,36.6 C129.600004,17.3 131.200004,1.2 131.500004,0.8 C134.000004,-1.6 138.000004,0.9 163.000005,20.4 C187.700006,39.6 189.300006,41.1 189.000006,43.9 C188.800006,46.8 187.800006,47.3 159.300005,60.6 C143.100005,68.2 129.600004,74.3 129.300004,74.3 C129.000004,74.3 128.000004,73.7 127.100004,73 L127.100004,73 Z M155.700005,47.7 L169.100005,41 L156.400005,32.3 C149.500005,27.6 143.500005,23.9 143.200005,24.3 C142.500005,25 141.200005,54.4 141.900005,54.4 C142.100005,54.4 148.300005,51.4 155.700005,47.7 L155.700005,47.7 Z" id="Shape"></path>
        </g>
    </g>
</svg>